<svg width="60" height="28" viewBox="0 0 60 28" fill="none" xmlns="http://www.w3.org/2000/svg">
<path d="M41.9378 15.8394V11.2188C41.9378 7.26371 38.8097 4.05969 34.9483 4.05969H34.4192C30.5578 4.05969 27.4297 7.26371 27.4297 11.2188V15.8394C27.4297 19.7945 30.5578 22.9986 34.4192 22.9986H34.9483C36.6376 22.9986 38.1785 22.3901 39.3944 21.3633C40.2855 22.1714 41.1395 22.6087 41.7893 22.8369C42.2719 23.0081 42.6896 23.0841 43.0331 23.1222V20.365C42.5875 20.2699 41.8821 20.0037 41.0931 19.2621C41.6315 18.2448 41.9378 17.0754 41.9378 15.8394ZM39.2645 15.8394C39.2645 16.2197 39.2181 16.6 39.1253 16.9518C37.6401 15.5067 35.9693 15.0028 35.0504 14.8221V17.6363C35.7465 17.8455 36.7676 18.3114 37.6215 19.3097C36.8883 19.9086 35.9507 20.2699 34.9483 20.2699H34.4192C32.0429 20.2699 30.103 18.2829 30.103 15.8489V11.2188C30.103 8.7849 32.0429 6.79784 34.4192 6.79784H34.9483C37.3245 6.79784 39.2645 8.7849 39.2645 11.2188V15.8394Z" fill="black"/>
<path d="M57.6126 19.2526C58.151 18.2353 58.4573 17.0754 58.4573 15.8394V11.2188C58.4573 7.26371 55.3292 4.05969 51.4678 4.05969H50.9387C47.0773 4.05969 43.9492 7.26371 43.9492 11.2188V15.8394C43.9492 19.7945 47.0773 22.9986 50.9387 22.9986H51.4678C53.1572 22.9986 54.698 22.3901 55.914 21.3633C56.8051 22.1714 57.659 22.6087 58.3088 22.8369C58.7915 23.0081 59.2092 23.0841 59.5526 23.1222V20.365C59.1071 20.2604 58.4016 19.9942 57.6126 19.2526ZM55.784 15.8394C55.784 16.2197 55.7376 16.6 55.6448 16.9518C54.1596 15.5067 52.4888 15.0028 51.5699 14.8221V17.6268C52.2661 17.836 53.2871 18.2924 54.1411 19.3002C53.4078 19.8991 52.4703 20.2604 51.4678 20.2604H50.9387C48.5625 20.2604 46.6225 18.2733 46.6225 15.8394V11.2188C46.6225 8.7849 48.5625 6.79784 50.9387 6.79784H51.4678C53.844 6.79784 55.784 8.7849 55.784 11.2188V15.8394Z" fill="black"/>
<path d="M12.2446 25.1066C10.26 25.1066 8.44615 24.4396 7.2749 23.4554C6.68114 23.6344 5.91657 23.9191 5.43668 24.277C5.02999 24.5779 5.0788 24.887 5.152 25.0171C5.47735 25.5621 10.7317 25.3669 12.2446 25.1961V25.1066Z" fill="#F9AE08"/>
<path d="M12.2432 25.1066C14.2278 25.1066 16.0416 24.4396 17.2129 23.4554C17.8066 23.6344 18.5712 23.9191 19.0511 24.277C19.4578 24.5779 19.409 24.887 19.3358 25.0171C19.0104 25.5621 13.756 25.3669 12.2432 25.1961V25.1066Z" fill="#F9AE08"/>
<path d="M12.2517 13.2313C15.5215 13.2069 18.1487 12.5725 19.0353 12.3366C19.2467 12.2797 19.3606 12.174 19.3606 12.174C19.3606 12.1414 19.3769 11.6453 19.3769 11.385C19.3769 7.0172 17.3109 2.625 12.2436 2.625C7.16818 2.625 5.11035 7.0172 5.11035 11.385C5.11035 11.6453 5.12662 12.1496 5.12662 12.174C5.12662 12.174 5.21609 12.2716 5.3869 12.3204C6.2084 12.5481 8.87626 13.2151 12.2355 13.2395H12.2517V13.2313Z" fill="black"/>
<path d="M21.1427 16.8752C20.9393 16.2245 20.6628 15.46 20.3862 14.7279C20.3862 14.7279 20.2235 14.7117 20.1422 14.7279C17.6289 15.46 14.5788 15.9236 12.2525 15.8992H12.2281C9.91814 15.9317 6.8924 15.4681 4.38722 14.7442C4.28962 14.7198 4.10254 14.7279 4.10254 14.7279C3.826 15.46 3.54132 16.2164 3.34611 16.8752C2.3782 19.9904 2.69541 21.2756 2.93129 21.3081C3.44371 21.3732 4.92405 18.9656 4.92405 18.9656C4.92405 21.4057 7.12828 25.1635 12.1793 25.196C12.2037 25.196 12.2932 25.196 12.3094 25.196C17.3605 25.1635 19.5647 21.4057 19.5647 18.9656C19.5647 18.9656 21.045 21.3732 21.5575 21.3081C21.8015 21.2756 22.1106 19.9904 21.1427 16.8752Z" fill="black"/>
<path d="M10.4397 9.07498C9.74829 9.10752 9.16266 8.31855 9.13013 7.32624C9.08946 6.32579 9.61815 5.49615 10.3095 5.46362C11.0009 5.43108 11.5865 6.22005 11.619 7.21236C11.6516 8.21281 11.131 9.05058 10.4397 9.07498Z" fill="white"/>
<path d="M15.3585 7.32625C15.3179 8.31856 14.7322 9.10753 14.049 9.07499C13.3576 9.04246 12.8371 8.21282 12.8696 7.21237C12.9103 6.21193 13.4959 5.43109 14.1791 5.46363C14.8705 5.49616 15.3992 6.33393 15.3585 7.32625Z" fill="white"/>
<path d="M16.5797 10.4822C16.3926 10.0755 14.5463 9.62 12.2526 9.62H12.2282C9.93446 9.62 8.08811 10.0755 7.90103 10.4822C7.8929 10.4984 7.88477 10.5228 7.88477 10.5391C7.88477 10.5716 7.8929 10.596 7.90917 10.6204C8.06371 10.8482 10.1215 11.9625 12.2282 11.9625H12.2526C14.3592 11.9625 16.417 10.8482 16.5716 10.6204C16.5878 10.596 16.596 10.5716 16.596 10.5391C16.596 10.5228 16.5878 10.5066 16.5797 10.4822Z" fill="#F9AE08"/>
<path d="M11.2839 7.3425C11.3164 7.73292 11.0968 8.08267 10.804 8.12334C10.503 8.16401 10.2428 7.8712 10.2102 7.48078C10.1777 7.09036 10.3973 6.74061 10.6901 6.69994C10.9829 6.65927 11.2513 6.95209 11.2839 7.3425Z" fill="black"/>
<path fill-rule="evenodd" clip-rule="evenodd" d="M13.1728 7.47264C13.2297 7.3669 13.6445 6.78941 14.5067 7.00089C14.7344 7.05782 14.8402 7.13916 14.8565 7.1717C14.889 7.2205 14.8971 7.28557 14.8646 7.37504C14.7995 7.55398 14.6612 7.54585 14.588 7.51331C14.5392 7.48891 13.9455 7.09036 13.3924 7.68412C13.3517 7.72479 13.2866 7.74106 13.2216 7.69225C13.1646 7.64345 13.1402 7.54585 13.1728 7.47264Z" fill="black"/>
<path d="M12.2535 15.761H12.2291C10.6511 15.7772 8.7316 15.5739 6.87711 15.2079C6.71444 16.127 6.62497 17.282 6.7063 18.6647C6.91778 22.1459 8.98374 24.342 12.1803 24.3746H12.2454H12.3104C15.507 24.342 17.5729 22.1541 17.7844 18.6647C17.8657 17.282 17.7681 16.127 17.6136 15.2079C15.751 15.5658 13.8396 15.7772 12.2535 15.761Z" fill="white"/>
<path d="M7.75586 15.4681V18.8924C7.75586 18.8924 9.32566 19.2096 10.9036 18.99V15.826C9.90316 15.7772 8.82951 15.6471 7.75586 15.4681Z" fill="#EA1C26"/>
<path d="M19.3617 12.174C19.3617 12.174 16.3034 13.1419 12.2528 13.1663H12.2284C8.18598 13.1419 5.12771 12.174 5.11957 12.174L4.09473 14.7279C6.65684 15.5006 9.82899 15.9968 12.2284 15.9643H12.2528C14.6523 15.9968 17.8244 15.4925 20.3865 14.7279L19.3617 12.174Z" fill="#EA1C26"/>
</svg>
